TITLE "126.800, flac"
FILE "126.800.flac" WAVE

TRACK 01 AUDIO
TITLE "2020.02.06-06:01.45:752235"
INDEX 01 02:45:31

TRACK 02 AUDIO
TITLE "2020.02.06-06:04.07:512157"
INDEX 00 03:00:18
INDEX 01 05:07:13

TRACK 03 AUDIO
TITLE "2020.02.06-06:04.17:734798"
INDEX 00 05:16:60
INDEX 01 05:17:30

TRACK 04 AUDIO
TITLE "2020.02.06-06:07.22:692292"
INDEX 00 05:23:06
INDEX 01 08:22:27

TRACK 05 AUDIO
TITLE "2020.02.06-06:07.29:412304"
INDEX 00 08:26:60
INDEX 01 08:29:06

TRACK 06 AUDIO
TITLE "2020.02.06-06:09.23:312492"
INDEX 00 08:40:27
INDEX 01 10:22:73

TRACK 07 AUDIO
TITLE "2020.02.06-06:09.27:197049"
INDEX 00 10:26:40
INDEX 01 10:26:65

TRACK 08 AUDIO
TITLE "2020.02.06-06:09.59:552257"
INDEX 00 10:38:29
INDEX 01 10:59:16

TRACK 09 AUDIO
TITLE "2020.02.06-06:10.02:972337"
INDEX 00 11:02:39
INDEX 01 11:02:48

TRACK 10 AUDIO
TITLE "2020.02.06-06:12.06:692328"
INDEX 00 11:09:16
INDEX 01 13:06:27

TRACK 11 AUDIO
TITLE "2020.02.06-06:12.41:472193"
INDEX 00 13:19:52
INDEX 01 13:41:10

TRACK 12 AUDIO
TITLE "2020.02.06-06:13.55:012109"
INDEX 00 13:57:31
INDEX 01 14:54:51

TRACK 13 AUDIO
TITLE "2020.02.06-06:14.15:854166"
INDEX 00 15:01:07
INDEX 01 15:15:39

TRACK 14 AUDIO
TITLE "2020.02.06-06:14.48:012476"
INDEX 00 15:29:38
INDEX 01 15:47:51

TRACK 15 AUDIO
TITLE "2020.02.06-06:14.53:132336"
INDEX 00 15:50:39
INDEX 01 15:52:60

TRACK 16 AUDIO
TITLE "2020.02.06-06:14.58:192282"
INDEX 00 15:57:48
INDEX 01 15:57:64

TRACK 17 AUDIO
TITLE "2020.02.06-06:15.15:854722"
INDEX 00 15:59:10
INDEX 01 16:15:39

TRACK 18 AUDIO
TITLE "2020.02.06-06:15.46:992360"
INDEX 00 16:30:33
INDEX 01 16:46:49

TRACK 19 AUDIO
TITLE "2020.02.06-06:15.54:633926"
INDEX 00 16:51:09
INDEX 01 16:54:23

TRACK 20 AUDIO
TITLE "2020.02.06-06:16.26:393615"
INDEX 00 16:58:32
INDEX 01 17:26:04

TRACK 21 AUDIO
TITLE "2020.02.06-06:16.39:272266"
INDEX 00 17:35:40
INDEX 01 17:38:70

TRACK 22 AUDIO
TITLE "2020.02.06-06:17.56:172284"
INDEX 00 17:51:63
INDEX 01 18:55:63

TRACK 23 AUDIO
TITLE "2020.02.06-06:18.08:432231"
INDEX 00 19:01:49
INDEX 01 19:08:07

TRACK 24 AUDIO
TITLE "2020.02.06-06:18.22:572438"
INDEX 00 19:14:19
INDEX 01 19:22:18

TRACK 25 AUDIO
TITLE "2020.02.06-06:18.50:112435"
INDEX 00 19:40:12
INDEX 01 19:49:58

TRACK 26 AUDIO
TITLE "2020.02.06-06:18.54:992199"
INDEX 00 19:53:49
INDEX 01 19:54:49

TRACK 27 AUDIO
TITLE "2020.02.06-06:19.55:052260"
INDEX 00 20:00:70
INDEX 01 20:54:54

TRACK 28 AUDIO
TITLE "2020.02.06-06:20.42:372717"
INDEX 00 21:11:10
INDEX 01 21:42:03

TRACK 29 AUDIO
TITLE "2020.02.06-06:22.07:552499"
INDEX 00 21:56:16
INDEX 01 23:07:16

TRACK 30 AUDIO
TITLE "2020.02.06-06:22.10:472089"
INDEX 00 23:09:39
INDEX 01 23:10:10

TRACK 31 AUDIO
TITLE "2020.02.06-06:23.17:496248"
INDEX 00 23:29:10
INDEX 01 24:17:12

TRACK 32 AUDIO
TITLE "2020.02.06-06:24.59:832178"
INDEX 00 24:27:38
INDEX 01 25:59:37

TRACK 33 AUDIO
TITLE "2020.02.06-06:25.17:072397"
INDEX 00 26:06:70
INDEX 01 26:16:55

TRACK 34 AUDIO
TITLE "2020.02.06-06:25.27:473122"
INDEX 00 26:24:13
INDEX 01 26:27:10

TRACK 35 AUDIO
TITLE "2020.02.06-06:25.42:492386"
INDEX 00 26:33:63
INDEX 01 26:42:12

TRACK 36 AUDIO
TITLE "2020.02.06-06:26.14:754918"
INDEX 00 26:49:57
INDEX 01 27:14:32

TRACK 37 AUDIO
TITLE "2020.02.06-06:27.38:212320"
INDEX 00 27:31:56
INDEX 01 28:37:66

TRACK 38 AUDIO
TITLE "2020.02.06-06:27.41:692584"
INDEX 00 28:41:00
INDEX 01 28:41:27

TRACK 39 AUDIO
TITLE "2020.02.06-06:28.02:692338"
INDEX 00 28:52:72
INDEX 01 29:02:27

TRACK 40 AUDIO
TITLE "2020.02.06-06:29.06:892523"
INDEX 00 29:10:33
INDEX 01 30:06:42

TRACK 41 AUDIO
TITLE "2020.02.06-06:29.20:692114"
INDEX 00 30:12:51
INDEX 01 30:20:27

TRACK 42 AUDIO
TITLE "2020.02.06-06:30.15:356402"
INDEX 00 30:33:22
INDEX 01 31:15:02

TRACK 43 AUDIO
TITLE "2020.02.06-06:30.36:772223"
INDEX 00 31:21:51
INDEX 01 31:36:33

TRACK 44 AUDIO
TITLE "2020.02.06-06:30.56:352204"
INDEX 00 31:42:25
INDEX 01 31:56:01

TRACK 45 AUDIO
TITLE "2020.02.06-06:31.00:212343"
INDEX 00 31:59:52
INDEX 01 31:59:66

TRACK 46 AUDIO
TITLE "2020.02.06-06:31.46:556447"
INDEX 00 32:34:46
INDEX 01 32:46:17

TRACK 47 AUDIO
TITLE "2020.02.06-06:32.27:952472"
INDEX 00 32:52:35
INDEX 01 33:27:46

TRACK 48 AUDIO
TITLE "2020.02.06-06:33.18:753841"
INDEX 00 33:34:37
INDEX 01 34:18:32

TRACK 49 AUDIO
TITLE "2020.02.06-06:33.50:954522"
INDEX 00 34:28:41
INDEX 01 34:50:47

TRACK 50 AUDIO
TITLE "2020.02.06-06:33.57:437607"
INDEX 00 34:53:50
INDEX 01 34:57:08

TRACK 51 AUDIO
TITLE "2020.02.06-06:34.24:872384"
INDEX 00 35:05:41
INDEX 01 35:24:40

TRACK 52 AUDIO
TITLE "2020.02.06-06:35.14:132325"
INDEX 00 35:45:01
INDEX 01 36:13:60

TRACK 53 AUDIO
TITLE "2020.02.06-06:35.19:496630"
INDEX 00 36:17:63
INDEX 01 36:19:12

TRACK 54 AUDIO
TITLE "2020.02.06-06:35.54:312284"
INDEX 00 36:38:59
INDEX 01 36:53:73

TRACK 55 AUDIO
TITLE "2020.02.06-06:36.08:752373"
INDEX 00 37:01:04
INDEX 01 37:08:31

TRACK 56 AUDIO
TITLE "2020.02.06-06:36.13:772252"
INDEX 00 37:11:57
INDEX 01 37:13:33

TRACK 57 AUDIO
TITLE "2020.02.06-06:36.34:692274"
INDEX 00 37:30:07
INDEX 01 37:34:27

TRACK 58 AUDIO
TITLE "2020.02.06-06:37.03:192248"
INDEX 00 37:42:49
INDEX 01 38:02:64

TRACK 59 AUDIO
TITLE "2020.02.06-06:37.44:112274"
INDEX 00 38:08:72
INDEX 01 38:43:58

TRACK 60 AUDIO
TITLE "2020.02.06-06:38.23:252384"
INDEX 00 39:14:39
INDEX 01 39:22:69

TRACK 61 AUDIO
TITLE "2020.02.06-06:38.29:292267"
INDEX 00 39:27:46
INDEX 01 39:28:72

TRACK 62 AUDIO
TITLE "2020.02.06-06:38.36:992237"
INDEX 00 39:36:36
INDEX 01 39:36:49

TRACK 63 AUDIO
TITLE "2020.02.06-06:39.20:892132"
INDEX 00 39:40:01
INDEX 01 40:20:42

TRACK 64 AUDIO
TITLE "2020.02.06-06:40.04:933414"
INDEX 00 40:26:57
INDEX 01 41:04:45

TRACK 65 AUDIO
TITLE "2020.02.06-06:40.19:312438"
INDEX 00 41:10:54
INDEX 01 41:18:73

TRACK 66 AUDIO
TITLE "2020.02.06-06:40.40:715699"
INDEX 00 41:26:36
INDEX 01 41:40:29

TRACK 67 AUDIO
TITLE "2020.02.06-06:41.00:352242"
INDEX 00 41:59:09
INDEX 01 42:00:01

TRACK 68 AUDIO
TITLE "2020.02.06-06:41.07:132269"
INDEX 00 42:05:67
INDEX 01 42:06:60

TRACK 69 AUDIO
TITLE "2020.02.06-06:41.17:692238"
INDEX 00 42:15:36
INDEX 01 42:17:27

TRACK 70 AUDIO
TITLE "2020.02.06-06:42.30:572142"
INDEX 00 42:24:25
INDEX 01 43:30:18

TRACK 71 AUDIO
TITLE "2020.02.06-06:42.39:072317"
INDEX 00 43:36:28
INDEX 01 43:38:55

TRACK 72 AUDIO
TITLE "2020.02.06-06:43.01:692153"
INDEX 00 43:45:30
INDEX 01 44:01:27

TRACK 73 AUDIO
TITLE "2020.02.06-06:43.18:312440"
INDEX 00 44:14:18
INDEX 01 44:17:73

TRACK 74 AUDIO
TITLE "2020.02.06-06:43.21:692425"
INDEX 00 44:21:07
INDEX 01 44:21:27

TRACK 75 AUDIO
TITLE "2020.02.06-06:43.26:192261"
INDEX 00 44:25:13
INDEX 01 44:25:64

TRACK 76 AUDIO
TITLE "2020.02.06-06:43.53:592212"
INDEX 00 44:50:10
INDEX 01 44:53:19

TRACK 77 AUDIO
TITLE "2020.02.06-06:43.58:492356"
INDEX 00 44:57:39
INDEX 01 44:58:12

TRACK 78 AUDIO
TITLE "2020.02.06-06:44.41:272138"
INDEX 00 45:03:27
INDEX 01 45:40:70

TRACK 79 AUDIO
TITLE "2020.02.06-06:44.56:532113"
INDEX 00 45:49:37
INDEX 01 45:56:15

TRACK 80 AUDIO
TITLE "2020.02.06-06:45.45:013497"
INDEX 00 46:14:73
INDEX 01 46:44:51

TRACK 81 AUDIO
TITLE "2020.02.06-06:45.58:272313"
INDEX 00 46:55:42
INDEX 01 46:57:70

TRACK 82 AUDIO
TITLE "2020.02.06-06:46.22:952088"
INDEX 00 47:07:37
INDEX 01 47:22:46

TRACK 83 AUDIO
TITLE "2020.02.06-06:46.27:337157"
INDEX 00 47:26:37
INDEX 01 47:27:00

TRACK 84 AUDIO
TITLE "2020.02.06-06:47.23:412307"
INDEX 00 48:15:18
INDEX 01 48:23:06

TRACK 85 AUDIO
TITLE "2020.02.06-06:47.51:792290"
INDEX 00 48:29:13
INDEX 01 48:51:34

TRACK 86 AUDIO
TITLE "2020.02.06-06:48.09:932176"
INDEX 00 49:00:45
INDEX 01 49:09:45

TRACK 87 AUDIO
TITLE "2020.02.06-06:48.18:972272"
INDEX 00 49:17:15
INDEX 01 49:18:48

TRACK 88 AUDIO
TITLE "2020.02.06-06:48.49:535263"
INDEX 00 49:24:45
INDEX 01 49:49:15

TRACK 89 AUDIO
TITLE "2020.02.06-06:49.12:072100"
INDEX 00 50:09:14
INDEX 01 50:11:55

TRACK 90 AUDIO
TITLE "2020.02.06-06:49.23:394379"
INDEX 00 50:18:24
INDEX 01 50:23:05

TRACK 91 AUDIO
TITLE "2020.02.06-06:49.31:752416"
INDEX 00 50:30:12
INDEX 01 50:31:31

TRACK 92 AUDIO
TITLE "2020.02.06-06:49.35:872117"
INDEX 00 50:35:15
INDEX 01 50:35:40

TRACK 93 AUDIO
TITLE "2020.02.06-06:49.44:457162"
INDEX 00 50:40:69
INDEX 01 50:44:09

TRACK 94 AUDIO
TITLE "2020.02.06-06:50.00:652133"
INDEX 00 50:49:23
INDEX 01 51:00:24

TRACK 95 AUDIO
TITLE "2020.02.06-06:50.10:452083"
INDEX 00 51:09:04
INDEX 01 51:10:09

TRACK 96 AUDIO
TITLE "2020.02.06-06:50.35:736346"
INDEX 00 51:16:43
INDEX 01 51:35:30

TRACK 97 AUDIO
TITLE "2020.02.06-06:51.09:032275"
INDEX 00 51:43:30
INDEX 01 52:08:52

TRACK 98 AUDIO
TITLE "2020.02.06-06:51.51:952233"
INDEX 00 52:51:06
INDEX 01 52:51:46

TRACK 99 AUDIO
TITLE "2020.02.06-06:52.09:632379"
INDEX 00 52:56:69
INDEX 01 53:09:22

TRACK 100 AUDIO
TITLE "2020.02.06-06:52.44:952260"
INDEX 00 53:17:19
INDEX 01 53:44:46

TRACK 101 AUDIO
TITLE "2020.02.06-06:52.59:892231"
INDEX 00 53:57:12
INDEX 01 53:59:42

TRACK 102 AUDIO
TITLE "2020.02.06-06:53.08:052412"
INDEX 00 54:06:61
INDEX 01 54:07:54

TRACK 103 AUDIO
TITLE "2020.02.06-06:53.24:132244"
INDEX 00 54:18:19
INDEX 01 54:23:60

TRACK 104 AUDIO
TITLE "2020.02.06-06:53.41:437422"
INDEX 00 54:29:13
INDEX 01 54:41:08

TRACK 105 AUDIO
TITLE "2020.02.06-06:53.47:215129"
INDEX 00 54:42:44
INDEX 01 54:46:66

TRACK 106 AUDIO
TITLE "2020.02.06-06:54.00:012208"
INDEX 00 54:55:02
INDEX 01 54:59:51

TRACK 107 AUDIO
TITLE "2020.02.06-06:55.12:172964"
INDEX 00 55:12:16
INDEX 01 56:11:63

TRACK 108 AUDIO
TITLE "2020.02.06-06:55.45:856882"
INDEX 00 56:26:18
INDEX 01 56:45:39

TRACK 109 AUDIO
TITLE "2020.02.06-06:56.06:072112"
INDEX 00 56:50:72
INDEX 01 57:05:55

TRACK 110 AUDIO
TITLE "2020.02.06-06:56.21:432182"
INDEX 00 57:18:49
INDEX 01 57:21:07

TRACK 111 AUDIO
TITLE "2020.02.06-06:56.37:396386"
INDEX 00 57:33:13
INDEX 01 57:37:05

TRACK 112 AUDIO
TITLE "2020.02.06-06:57.11:372479"
INDEX 00 57:44:59
INDEX 01 58:11:03

TRACK 113 AUDIO
TITLE "2020.02.06-06:57.43:652379"
INDEX 00 58:25:64
INDEX 01 58:43:24

TRACK 114 AUDIO
TITLE "2020.02.06-06:58.11:776668"
INDEX 00 58:49:36
INDEX 01 59:11:33

TRACK 115 AUDIO
TITLE "2020.02.06-06:58.17:232500"
INDEX 00 59:15:63
INDEX 01 59:16:67

TRACK 116 AUDIO
TITLE "2020.02.06-06:58.34:432238"
INDEX 00 59:25:15
INDEX 01 59:34:07

TRACK 117 AUDIO
TITLE "2020.02.06-07:00.31:612843"
INDEX 00 59:46:72
INDEX 01 61:31:21

TRACK 118 AUDIO
TITLE "2020.02.06-07:00.38:016686"
INDEX 00 61:37:21
INDEX 01 61:37:51

TRACK 119 AUDIO
TITLE "2020.02.06-07:00.45:052432"
INDEX 00 61:44:50
INDEX 01 61:44:54

TRACK 120 AUDIO
TITLE "2020.02.06-07:01.00:432167"
INDEX 00 61:56:33
INDEX 01 62:00:07

